<svg xmlns="http://www.w3.org/2000/svg" width="381" height="94" viewBox="0 0 381 94" version="1.1">
	<path d="M 173.476 1.202 C 173.200 1.921, 173.093 18.707, 173.237 38.505 L 173.500 74.500 179 74.500 L 184.500 74.500 184.500 37.500 L 184.500 0.500 179.239 0.197 C 175.600 -0.012, 173.823 0.298, 173.476 1.202 M 0.678 19.656 C 0.305 20.028, -0 32.633, -0 47.667 L 0 75 29 75 L 58 75 58 47.441 C 58 29.064, 57.662 20.091, 56.986 20.509 C 56.428 20.854, 55.069 22.905, 53.965 25.068 C 52.862 27.231, 51.784 29, 51.569 29 C 51.354 29, 50.197 26.973, 48.998 24.496 C 47.551 21.506, 45.993 19.785, 44.362 19.376 C 41.021 18.538, 40.418 19.463, 42.366 22.436 C 43.267 23.811, 44.912 27.241, 46.023 30.059 L 48.043 35.182 44.876 40.717 L 41.709 46.251 37.364 35.376 C 32.703 23.708, 28.977 19, 24.406 19 L 21.844 19 25.301 23.038 C 27.202 25.260, 29.496 29.011, 30.399 31.376 C 32.012 35.599, 31.995 35.756, 29.435 40.337 C 28.002 42.902, 26.518 45, 26.137 45 C 25.756 45, 24.177 42.090, 22.628 38.533 C 18.204 28.379, 11.873 22.136, 3.428 19.600 C 2.288 19.258, 1.050 19.283, 0.678 19.656 M 84.619 22.034 C 83.035 22.509, 80.672 23.899, 79.369 25.123 L 77 27.349 77 24.674 C 77 22.099, 76.796 22, 71.500 22 L 66 22 66 58 L 66 94 71.500 94 L 77 94 77 82.636 L 77 71.272 81.669 73.636 C 86.811 76.239, 90.932 76.590, 96.101 74.866 C 100.511 73.394, 105.840 68.423, 107.748 64 C 111.307 55.749, 110.986 38.793, 107.127 31.268 C 102.747 22.726, 94.124 19.189, 84.619 22.034 M 131.637 22.465 C 122.579 25.694, 117.721 34.567, 117.658 48 C 117.605 59.023, 119.783 65.668, 124.989 70.371 C 133.468 78.031, 148.532 78.031, 157.011 70.371 C 162.217 65.668, 164.395 59.023, 164.342 48 C 164.258 30.199, 156.058 20.930, 140.500 21.049 C 137.750 21.071, 133.762 21.707, 131.637 22.465 M 264.346 22.450 C 262.612 23.205, 260.024 25.542, 258.596 27.643 L 256 31.464 256 26.732 L 256 22 250.500 22 L 245 22 245 48.500 L 245 75 250.500 75 L 256 75 256 59.228 L 256 43.456 259.007 39.808 C 260.720 37.730, 263.947 35.422, 266.507 34.444 L 271 32.728 271 26.864 C 271 20.330, 270.295 19.862, 264.346 22.450 M 288.500 22.207 C 283.089 24.098, 278.831 28.130, 276.158 33.893 C 274 38.546, 273.558 40.946, 273.561 48 C 273.565 59.439, 275.192 64.535, 280.454 69.595 C 284.813 73.788, 290.572 76, 297.127 76 C 301.588 76, 311.028 73.242, 313.848 71.115 C 316.090 69.423, 316.120 69.223, 314.651 65.708 L 313.126 62.057 308.813 63.929 C 301.898 66.931, 296.676 67.415, 292.514 65.440 C 288.607 63.586, 285 57.885, 285 53.565 L 285 51.051 300.750 50.775 L 316.500 50.500 316.326 44.245 C 316.113 36.605, 314.656 31.933, 311.205 27.832 C 306.226 21.915, 296.341 19.466, 288.500 22.207 M 191.006 22.700 C 191.009 23.140, 193.498 31.375, 196.536 41 C 199.575 50.625, 203.190 62.184, 204.571 66.686 C 206.447 72.801, 207.559 74.951, 208.970 75.186 C 210.761 75.484, 210.707 75.965, 207.941 84.500 C 206.337 89.450, 205.019 93.612, 205.012 93.750 C 205.005 93.888, 207.624 94, 210.831 94 L 216.662 94 227.464 59.250 C 233.405 40.138, 238.480 23.938, 238.740 23.250 C 239.087 22.336, 237.592 22, 233.174 22 C 228.281 22, 227.039 22.332, 226.632 23.750 C 223.030 36.285, 215.655 59.668, 215.127 60.230 C 214.749 60.632, 211.749 52.307, 208.460 41.730 L 202.480 22.500 196.740 22.200 C 193.583 22.035, 191.003 22.260, 191.006 22.700 M 319 22.596 C 319 22.924, 322.682 34.849, 327.183 49.096 C 333.932 70.462, 335.684 75, 337.183 75 C 338.182 75, 338.995 75.112, 338.988 75.250 C 338.981 75.388, 337.665 79.550, 336.064 84.500 L 333.152 93.500 338.689 93.803 C 341.735 93.970, 344.409 93.925, 344.631 93.702 C 344.853 93.480, 349.763 78.044, 355.542 59.399 C 361.320 40.755, 366.292 24.713, 366.591 23.750 C 367.067 22.219, 366.394 22, 361.225 22 L 355.315 22 349.436 41.500 C 346.203 52.225, 343.320 60.996, 343.029 60.991 C 342.738 60.986, 339.802 52.211, 336.504 41.491 L 330.507 22 324.754 22 C 321.589 22, 319 22.268, 319 22.596 M 370.655 23.829 C 367.583 27.223, 369.141 32.098, 373.733 33.461 C 376.878 34.395, 381.395 29.878, 380.461 26.733 C 379.072 22.054, 373.701 20.463, 370.655 23.829 M 371.655 24.829 C 368.695 28.099, 370.243 32, 374.500 32 C 378.893 32, 380.813 26.040, 377.066 24.035 C 374.388 22.602, 373.560 22.724, 371.655 24.829 M 372.667 24.667 C 371.642 25.692, 371.877 29.806, 373 30.500 C 373.550 30.840, 374 30.330, 374 29.368 C 374 27.764, 374.115 27.775, 375.375 29.498 C 376.656 31.251, 376.750 31.179, 376.756 28.439 C 376.764 24.967, 374.476 22.857, 372.667 24.667 M 83.500 31.665 C 77.007 35.096, 77 35.115, 77 49.541 L 77 62.772 80.420 64.395 C 88.265 68.118, 92.832 67.149, 96.445 60.998 C 98.142 58.109, 98.491 55.846, 98.446 48 C 98.407 41.050, 97.935 37.636, 96.686 35.280 C 93.829 29.889, 89.241 28.632, 83.500 31.665 M 133.749 32.524 C 130.852 35.421, 128.998 41.742, 129.006 48.693 C 129.013 55.198, 130.566 60.331, 133.627 63.969 C 135.719 66.455, 136.930 67, 140.366 67 C 147.947 67, 151.670 62.343, 152.672 51.606 C 153.418 43.616, 151.642 35.914, 148.275 32.548 C 144.664 28.937, 137.348 28.924, 133.749 32.524 M 288.589 33.077 C 287.165 34.769, 285.994 36.681, 285.986 37.327 C 285.979 37.972, 285.701 39.513, 285.370 40.750 C 284.772 42.980, 284.862 43, 295.383 43 C 305.389 43, 306 42.883, 306 40.968 C 306 37.686, 303.333 32.248, 301.150 31.080 C 300.040 30.486, 297.342 30, 295.155 30 C 291.942 30, 290.681 30.591, 288.589 33.077" stroke="none" fill="#171719" fill-rule="evenodd"/>
</svg>